/* XPM */
static char *_a7344b7b0bc4dbca3ac41650153519drdreYOano59ZlCP0[] = {
/* columns rows colors chars-per-pixel */
"24 18 81 1 ",
"  c None",
". c #10FF00",
"X c #12FF00",
"o c #15FF00",
"O c #16FF00",
"+ c #17FF00",
"@ c #18FF00",
"# c #19FF00",
"$ c #1AFF00",
"% c #1CFF00",
"& c #1FFF00",
"* c #1FFF01",
"= c #20FF00",
"- c #21FF00",
"; c #22FF00",
": c #23FF00",
"> c #20FF03",
", c #23FF06",
"< c #29FF00",
"1 c #29FF01",
"2 c #2AFF00",
"3 c #2BFF00",
"4 c #2FFF00",
"5 c #28FF04",
"6 c #2CFF05",
"7 c #31FF00",
"8 c #33FF00",
"9 c #30FF03",
"0 c #37FF00",
"q c #31FF06",
"w c #34FF06",
"e c #38FF00",
"r c #39FF00",
"t c #38FF01",
"y c #3BFF00",
"u c #35FF0E",
"i c #36FF0E",
"p c #42FF02",
"a c #45FF00",
"s c #4BFF00",
"d c #4CFF00",
"f c #41FF0B",
"g c #51FF00",
"h c #52FF00",
"j c #54FF00",
"k c #5EFF00",
"l c #48FF1B",
"z c #63FF00",
"x c #66FF00",
"c c #69FF00",
"v c #6BFF00",
"b c #78FF00",
"n c #7EFF00",
"m c chartreuse",
"M c #42FF22",
"N c #43FF22",
"B c #47FF21",
"V c #48FF22",
"C c #4FFF25",
"Z c #56FF26",
"A c #5BFF31",
"S c #5BFF32",
"D c #75FF46",
"F c #7DFF53",
"G c #7FFF54",
"H c #7DFF56",
"J c #7FFF56",
"K c #7EFF57",
"L c #80FF00",
"P c #89FF00",
"I c #8AFF00",
"U c #89FF5B",
"Y c #ABFF77",
"T c #B0FF86",
"R c #B9FF8F",
"E c #BBFF90",
"W c #C8FF98",
"Q c #C9FF98",
"! c #DDFFAB",
"~ c #DEFFAB",
"^ c #EDFFBE",
/* pixels */
"                        ",
"                        ",
"                        ",
"          ,,O.          ",
"        MGFAu1O.        ",
"       MT!RGBw=$$       ",
"       G!^WUCw:==       ",
"      ,GEWYDl91113      ",
"      ,SGUDZf0tttt      ",
"      OuVClfpadhhs      ",
"      .%56w0ajxvck      ",
"       $%=10dxbLn       ",
"       O$39thcLII       ",
"        $%0thcnI        ",
"          9tsz          ",
"                        ",
"                        ",
"                        "
};
