/* XPM */
static char *_ca49142165843e5b31e2bc5eb526eebbj4NB6kHITGhwfJd[] = {
/* columns rows colors chars-per-pixel */
"24 18 27 1 ",
"  c None",
". c red",
"X c #FF0101",
"o c #FF0202",
"O c #FF0303",
"+ c #FF0404",
"@ c #FF0606",
"# c #FF0C0C",
"$ c #FF0F0F",
"% c #FF1C1C",
"& c #FF2323",
"* c #FF2727",
"= c #FF3232",
"- c #FF3333",
"; c #FF4747",
": c #FF5454",
"> c #FF5555",
", c #FF5858",
"< c #FF5959",
"1 c #FF5C5C",
"2 c #FF7878",
"3 c #FF8686",
"4 c #FF9090",
"5 c #FF9999",
"6 c #FFABAB",
"7 c #FFACAC",
"8 c #FFBFBF",
/* pixels */
"                        ",
"                        ",
"                        ",
"          @OOO          ",
"        &>:=#OOO        ",
"       &364<&@OOO       ",
"       <7851&@OOO       ",
"      @>452;%OOOOO      ",
"      @=<1;&#OOOOO      ",
"      O#&&%#OOOOOO      ",
"      OO@@OOOOOOOO      ",
"       OOOOOOOOOO       ",
"       OOOOOOOOOO       ",
"        OOOOOOOO        ",
"          OOOO          ",
"                        ",
"                        ",
"                        "
};
