/* XPM */
static char *_60a9594b4384114c5e92110f937d696FAA5ETVJqgYWzoEh[] = {
/* columns rows colors chars-per-pixel */
"24 18 66 1 ",
"  c None",
". c #080000",
"X c #090000",
"o c #100000",
"O c #170000",
"+ c #180000",
"@ c #1B0000",
"# c #230000",
"$ c #250000",
"% c #250202",
"& c #260202",
"* c #270303",
"= c #2A0000",
"- c #2E0303",
"; c #280404",
": c #2A0909",
"> c #2A0A0A",
", c #310000",
"< c #330000",
"1 c #340000",
"2 c #340202",
"3 c #3E0101",
"4 c #400000",
"5 c #420000",
"6 c #450000",
"7 c #470101",
"8 c #480000",
"9 c #4E0000",
"0 c #440808",
"q c #540000",
"w c #590000",
"e c #5B0000",
"r c #431414",
"t c #401A1A",
"y c #481D1D",
"u c #501919",
"i c #511A1A",
"p c #531E1E",
"a c #600000",
"s c #690000",
"d c #6E0000",
"f c #770000",
"g c #7D0000",
"h c #4A2626",
"j c #4A2727",
"k c #663838",
"l c #694242",
"z c #6A4343",
"x c #6F4545",
"c c #704545",
"v c #714545",
"b c #764949",
"n c #774949",
"m c #800000",
"M c #910000",
"N c #930000",
"B c #A30000",
"V c #AA0000",
"C c #936060",
"Z c #996C6C",
"A c #A37474",
"S c #A37575",
"D c #AC7C7C",
"F c #B68B8B",
"G c #B78B8B",
"H c #CD9B9B",
/* pixels */
"                        ",
"                        ",
"                        ",
"          **O.          ",
"        ixzh:OX.        ",
"       iZFAxt*@@o       ",
"       vFHDby-**#       ",
"      ;zADCkr2,,2-      ",
"      *jxbkp034784      ",
"      O:tyr079qwaw      ",
"      .@*-,39wsfgd      ",
"       o@*,4qsmMM       ",
"       .O#27efMBV       ",
"        o*28agNV        ",
"          =4wd          ",
"                        ",
"                        ",
"                        "
};
