/* XPM */
static char *_daecf1fdf944227d0d05506e0ab627d3Lv5dHwbKL79XNIJ[] = {
/* columns rows colors chars-per-pixel */
"24 18 73 1 ",
"  c None",
". c #000900",
"X c #000A00",
"o c #001100",
"O c #001200",
"+ c #001900",
"@ c #011901",
"# c #001A00",
"$ c #001D00",
"% c #002500",
"& c #002800",
"* c #022802",
"= c #032803",
"- c #032903",
"; c #002D00",
": c #042A04",
"> c #042B04",
", c #0B2E0B",
"< c #003500",
"1 c #003700",
"2 c #043104",
"3 c #003800",
"4 c #033803",
"5 c #014301",
"6 c #004500",
"7 c #004600",
"8 c #004700",
"9 c #004A00",
"0 c #004E00",
"q c #024D02",
"w c #094909",
"e c #005300",
"r c #005A00",
"t c #005E00",
"y c #005F00",
"u c #164816",
"i c #174817",
"p c #1C451C",
"a c #1F4D1F",
"s c #1C551C",
"d c #1C561C",
"f c #006100",
"g c #006200",
"h c #006700",
"j c #007100",
"k c #007400",
"l c #007500",
"z c #007F00",
"x c #2A4F2A",
"c c #205920",
"v c #2A502A",
"b c #3C6D3C",
"n c #477047",
"m c #487148",
"M c #497749",
"N c #4A774A",
"B c #4A784A",
"V c #4F7F4F",
"C c #008500",
"Z c #008800",
"A c #009A00",
"S c #009D00",
"D c #00AD00",
"F c #00B300",
"G c #679D67",
"H c #74A374",
"J c #7CAE7C",
"K c #7DAE7D",
"L c #84B784",
"P c #84B884",
"I c #94C294",
"U c #95C395",
"Y c #A5DBA5",
/* pixels */
"                        ",
"                        ",
"                        ",
"          >%@X          ",
"        sNnx,@oX        ",
"       dHIKNp>$@o       ",
"       BIYLBc2&&%       ",
"      >mKLGbp1113;      ",
"      &vNVbcw55qq9      ",
"      @,,ciwqerghg      ",
"      X@,245egjzCk      ",
"       O$>15rjZAS       ",
"       X@%19gzADF       ",
"        o%1ehCSF        ",
"          ;5tk          ",
"                        ",
"                        ",
"                        "
};
